<svg xmlns="http://www.w3.org/2000/svg" viewBox="0 0 64 64">
  <rect width="64" height="64" fill="#0f0f0f"/>
  <g transform="translate(6.4 6.4) scale(0.8)">
    <path d="M51.9 27.06 L58.73 28.2 L58.73 35.8 L51.9 36.94 L49.56 42.57 L53.59 48.21 L48.21 53.59 L42.57 49.56 L36.94 51.9 L35.8 58.73 L28.2 58.73 L27.06 51.9 L21.43 49.56 L15.79 53.59 L10.41 48.21 L14.44 42.57 L12.1 36.94 L5.27 35.8 L5.27 28.2 L12.1 27.06 L14.44 21.43 L10.41 15.79 L15.79 10.41 L21.43 14.44 L27.06 12.1 L28.2 5.27 L35.8 5.27 L36.94 12.1 L42.57 14.44 L48.21 10.41 L53.59 15.79 L49.56 21.43 Z" fill="none" stroke="#ededed" stroke-width="3" stroke-linejoin="round"/>
    <circle cx="32" cy="32" r="7" fill="none" stroke="#ededed" stroke-width="2.5"/>
    <circle cx="40.99" cy="10.29" r="3.2" fill="#f78f08"/>
  </g>
</svg>
